<svg xmlns="http://www.w3.org/2000/svg" xmlns:xlink="http://www.w3.org/1999/xlink" width="500" zoomAndPan="magnify" viewBox="0 0 375 374.999991" height="500" preserveAspectRatio="xMidYMid meet" version="1.0"><defs><clipPath id="74a487d3ff"><path d="M 10.417969 13.34375 L 364.417969 13.34375 L 364.417969 367 L 10.417969 367 Z M 10.417969 13.34375 " clip-rule="nonzero"/></clipPath><clipPath id="c2d380bb91"><path d="M 246.078125 146.210938 C 243.3125 223.929688 131.527344 223.929688 128.761719 146.210938 C 131.53125 68.496094 243.324219 68.527344 246.078125 146.210938 Z M 364.550781 190.273438 C 354.855469 425.429688 20.019531 425.496094 10.285156 190.273438 C 10.289062 187.375 10.363281 184.476562 10.507812 181.578125 C 10.652344 178.683594 10.867188 175.789062 11.152344 172.902344 C 11.4375 170.019531 11.792969 167.140625 12.222656 164.273438 C 12.648438 161.402344 13.144531 158.546875 13.714844 155.703125 C 14.28125 152.859375 14.917969 150.027344 15.621094 147.214844 C 16.328125 144.402344 17.101562 141.609375 17.945312 138.835938 C 18.789062 136.058594 19.699219 133.308594 20.675781 130.578125 C 21.65625 127.847656 22.699219 125.140625 23.808594 122.460938 C 24.917969 119.785156 26.09375 117.132812 27.335938 114.511719 C 28.574219 111.890625 29.878906 109.300781 31.246094 106.746094 C 32.613281 104.1875 34.042969 101.664062 35.535156 99.179688 C 37.023438 96.691406 38.574219 94.242188 40.1875 91.832031 C 41.796875 89.421875 43.464844 87.050781 45.191406 84.722656 C 46.921875 82.394531 48.703125 80.109375 50.542969 77.867188 C 52.382812 75.625 54.273438 73.429688 56.222656 71.28125 C 58.167969 69.136719 60.167969 67.035156 62.214844 64.984375 C 64.265625 62.933594 66.363281 60.9375 68.511719 58.988281 C 70.660156 57.042969 72.851562 55.148438 75.09375 53.3125 C 77.332031 51.472656 79.617188 49.6875 81.945312 47.960938 C 84.273438 46.234375 86.640625 44.566406 89.050781 42.953125 C 91.460938 41.34375 93.910156 39.792969 96.394531 38.304688 C 98.878906 36.8125 101.402344 35.382812 103.957031 34.015625 C 106.511719 32.652344 109.101562 31.347656 111.71875 30.109375 C 114.339844 28.867188 116.988281 27.695312 119.664062 26.585938 C 122.34375 25.476562 125.042969 24.433594 127.773438 23.457031 C 130.5 22.480469 133.25 21.570312 136.023438 20.726562 C 138.796875 19.886719 141.589844 19.113281 144.398438 18.410156 C 147.210938 17.707031 150.035156 17.070312 152.878906 16.503906 C 155.722656 15.9375 158.574219 15.445312 161.441406 15.019531 C 164.308594 14.59375 167.183594 14.238281 170.066406 13.953125 C 172.949219 13.667969 175.835938 13.457031 178.730469 13.3125 C 181.625 13.171875 184.523438 13.101562 187.417969 13.101562 C 190.316406 13.101562 193.210938 13.171875 196.105469 13.3125 C 199 13.457031 201.890625 13.667969 204.773438 13.953125 C 207.65625 14.238281 210.53125 14.59375 213.398438 15.019531 C 216.261719 15.445312 219.117188 15.9375 221.960938 16.503906 C 224.800781 17.070312 227.628906 17.703125 230.4375 18.410156 C 233.25 19.113281 236.039062 19.886719 238.8125 20.726562 C 241.585938 21.570312 244.335938 22.480469 247.066406 23.457031 C 249.792969 24.433594 252.496094 25.476562 255.171875 26.585938 C 257.851562 27.695312 260.5 28.867188 263.117188 30.109375 C 265.738281 31.347656 268.324219 32.652344 270.882812 34.015625 C 273.4375 35.382812 275.957031 36.8125 278.441406 38.300781 C 280.929688 39.792969 283.375 41.34375 285.785156 42.953125 C 288.195312 44.566406 290.5625 46.234375 292.890625 47.960938 C 295.21875 49.6875 297.503906 51.472656 299.746094 53.308594 C 301.984375 55.148438 304.179688 57.042969 306.328125 58.988281 C 308.472656 60.9375 310.574219 62.933594 312.621094 64.984375 C 314.671875 67.035156 316.667969 69.132812 318.617188 71.28125 C 320.5625 73.429688 322.457031 75.625 324.296875 77.867188 C 326.132812 80.109375 327.917969 82.394531 329.644531 84.722656 C 331.371094 87.050781 333.039062 89.421875 334.652344 91.832031 C 336.261719 94.242188 337.8125 96.691406 339.304688 99.175781 C 340.796875 101.664062 342.222656 104.1875 343.589844 106.742188 C 344.957031 109.300781 346.261719 111.890625 347.503906 114.511719 C 348.742188 117.132812 349.917969 119.78125 351.027344 122.460938 C 352.140625 125.140625 353.183594 127.84375 354.160156 130.574219 C 355.140625 133.304688 356.050781 136.058594 356.890625 138.832031 C 357.734375 141.609375 358.507812 144.402344 359.214844 147.214844 C 359.921875 150.027344 360.558594 152.855469 361.125 155.699219 C 361.691406 158.546875 362.1875 161.402344 362.617188 164.269531 C 363.042969 167.140625 363.398438 170.015625 363.6875 172.902344 C 363.972656 175.789062 364.1875 178.679688 364.332031 181.578125 C 364.476562 184.472656 364.550781 187.371094 364.550781 190.273438 Z M 273.832031 146.210938 C 273.835938 144.796875 273.800781 143.378906 273.734375 141.964844 C 273.667969 140.550781 273.5625 139.136719 273.425781 137.726562 C 273.289062 136.316406 273.117188 134.910156 272.910156 133.511719 C 272.703125 132.109375 272.464844 130.714844 272.191406 129.324219 C 271.914062 127.933594 271.605469 126.550781 271.261719 125.175781 C 270.921875 123.800781 270.542969 122.4375 270.136719 121.082031 C 269.726562 119.726562 269.28125 118.378906 268.808594 117.046875 C 268.332031 115.710938 267.824219 114.390625 267.28125 113.082031 C 266.742188 111.773438 266.171875 110.476562 265.566406 109.195312 C 264.960938 107.914062 264.328125 106.648438 263.660156 105.398438 C 262.996094 104.148438 262.296875 102.917969 261.570312 101.699219 C 260.84375 100.484375 260.089844 99.289062 259.304688 98.109375 C 258.519531 96.929688 257.703125 95.773438 256.863281 94.632812 C 256.019531 93.496094 255.148438 92.378906 254.253906 91.285156 C 253.355469 90.1875 252.433594 89.113281 251.480469 88.066406 C 250.53125 87.015625 249.558594 85.988281 248.558594 84.984375 C 247.558594 83.984375 246.53125 83.007812 245.484375 82.054688 C 244.4375 81.101562 243.367188 80.175781 242.273438 79.277344 C 241.179688 78.378906 240.0625 77.507812 238.925781 76.664062 C 237.789062 75.816406 236.632812 75.003906 235.457031 74.214844 C 234.28125 73.425781 233.085938 72.667969 231.871094 71.941406 C 230.660156 71.210938 229.429688 70.511719 228.179688 69.84375 C 226.933594 69.175781 225.667969 68.539062 224.390625 67.933594 C 223.109375 67.328125 221.816406 66.753906 220.511719 66.210938 C 219.203125 65.667969 217.882812 65.15625 216.550781 64.679688 C 215.21875 64.203125 213.875 63.757812 212.519531 63.347656 C 211.167969 62.933594 209.804688 62.558594 208.429688 62.210938 C 207.058594 61.867188 205.675781 61.558594 204.289062 61.28125 C 202.902344 61.003906 201.507812 60.761719 200.109375 60.554688 C 198.707031 60.347656 197.304688 60.171875 195.894531 60.035156 C 194.488281 59.894531 193.074219 59.789062 191.664062 59.722656 C 190.25 59.652344 188.835938 59.617188 187.417969 59.617188 C 186.003906 59.617188 184.589844 59.652344 183.175781 59.722656 C 181.761719 59.789062 180.351562 59.894531 178.941406 60.035156 C 177.535156 60.171875 176.128906 60.347656 174.730469 60.554688 C 173.332031 60.761719 171.9375 61.003906 170.550781 61.28125 C 169.160156 61.558594 167.78125 61.867188 166.40625 62.210938 C 165.035156 62.558594 163.671875 62.933594 162.316406 63.347656 C 160.964844 63.757812 159.621094 64.203125 158.289062 64.679688 C 156.957031 65.15625 155.636719 65.667969 154.328125 66.210938 C 153.019531 66.753906 151.726562 67.328125 150.449219 67.933594 C 149.167969 68.539062 147.90625 69.175781 146.65625 69.84375 C 145.410156 70.511719 144.179688 71.210938 142.964844 71.941406 C 141.75 72.667969 140.558594 73.425781 139.378906 74.214844 C 138.203125 75.003906 137.046875 75.816406 135.910156 76.664062 C 134.773438 77.507812 133.660156 78.378906 132.566406 79.277344 C 131.472656 80.175781 130.402344 81.101562 129.355469 82.054688 C 128.304688 83.007812 127.28125 83.984375 126.28125 84.984375 C 125.28125 85.988281 124.304688 87.015625 123.355469 88.066406 C 122.40625 89.113281 121.484375 90.1875 120.585938 91.285156 C 119.6875 92.378906 118.820312 93.496094 117.976562 94.632812 C 117.132812 95.773438 116.320312 96.929688 115.535156 98.109375 C 114.75 99.289062 113.992188 100.484375 113.265625 101.699219 C 112.539062 102.917969 111.84375 104.148438 111.179688 105.398438 C 110.511719 106.648438 109.875 107.914062 109.273438 109.195312 C 108.667969 110.476562 108.097656 111.773438 107.554688 113.082031 C 107.015625 114.390625 106.507812 115.710938 106.03125 117.046875 C 105.554688 118.378906 105.113281 119.726562 104.703125 121.082031 C 104.292969 122.4375 103.917969 123.800781 103.574219 125.175781 C 103.234375 126.550781 102.921875 127.933594 102.648438 129.324219 C 102.375 130.714844 102.132812 132.109375 101.925781 133.511719 C 101.722656 134.910156 101.550781 136.316406 101.410156 137.726562 C 101.273438 139.136719 101.171875 140.550781 101.105469 141.964844 C 101.035156 143.378906 101.003906 144.796875 101.003906 146.210938 C 102.054688 226.507812 181.503906 314.152344 187.226562 320.835938 C 193.617188 313.867188 272.59375 236.148438 273.832031 146.210938 Z M 273.832031 146.210938 " clip-rule="nonzero"/></clipPath><linearGradient x1="6.1" gradientTransform="matrix(9.888268, 0, 0, 9.898137, -49.899545, -47.281059)" y1="23.954" x2="41.899997" gradientUnits="userSpaceOnUse" y2="23.954" id="744021a785"><stop stop-opacity="1" stop-color="rgb(67.498779%, 50.598145%, 96.899414%)" offset="0"/><stop stop-opacity="1" stop-color="rgb(67.306519%, 50.405884%, 96.803284%)" offset="0.25"/><stop stop-opacity="1" stop-color="rgb(66.921997%, 50.021362%, 96.611023%)" offset="0.5"/><stop stop-opacity="1" stop-color="rgb(66.717529%, 49.81842%, 96.508789%)" offset="0.515625"/><stop stop-opacity="1" stop-color="rgb(66.621399%, 49.726868%, 96.466064%)" offset="0.523438"/><stop stop-opacity="1" stop-color="rgb(66.351318%, 49.475098%, 96.350098%)" offset="0.53125"/><stop stop-opacity="1" stop-color="rgb(65.98053%, 49.130249%, 96.18988%)" offset="0.539063"/><stop stop-opacity="1" stop-color="rgb(65.608215%, 48.7854%, 96.031189%)" offset="0.546875"/><stop stop-opacity="1" stop-color="rgb(65.237427%, 48.442078%, 95.870972%)" offset="0.554688"/><stop stop-opacity="1" stop-color="rgb(64.866638%, 48.097229%, 95.71228%)" offset="0.5625"/><stop stop-opacity="1" stop-color="rgb(64.49585%, 47.75238%, 95.552063%)" offset="0.570312"/><stop stop-opacity="1" stop-color="rgb(64.125061%, 47.407532%, 95.393372%)" offset="0.578125"/><stop stop-opacity="1" stop-color="rgb(63.754272%, 47.062683%, 95.233154%)" offset="0.585937"/><stop stop-opacity="1" stop-color="rgb(63.383484%, 46.717834%, 95.074463%)" offset="0.59375"/><stop stop-opacity="1" stop-color="rgb(63.012695%, 46.372986%, 94.914246%)" offset="0.601563"/><stop stop-opacity="1" stop-color="rgb(62.641907%, 46.028137%, 94.755554%)" offset="0.609375"/><stop stop-opacity="1" stop-color="rgb(62.271118%, 45.683289%, 94.595337%)" offset="0.617188"/><stop stop-opacity="1" stop-color="rgb(61.90033%, 45.33844%, 94.436646%)" offset="0.625"/><stop stop-opacity="1" stop-color="rgb(61.529541%, 44.993591%, 94.277954%)" offset="0.632812"/><stop stop-opacity="1" stop-color="rgb(61.158752%, 44.648743%, 94.117737%)" offset="0.640625"/><stop stop-opacity="1" stop-color="rgb(60.787964%, 44.303894%, 93.959045%)" offset="0.648438"/><stop stop-opacity="1" stop-color="rgb(60.417175%, 43.959045%, 93.798828%)" offset="0.65625"/><stop stop-opacity="1" stop-color="rgb(60.046387%, 43.614197%, 93.640137%)" offset="0.664063"/><stop stop-opacity="1" stop-color="rgb(59.675598%, 43.269348%, 93.479919%)" offset="0.671875"/><stop stop-opacity="1" stop-color="rgb(59.30481%, 42.9245%, 93.321228%)" offset="0.679688"/><stop stop-opacity="1" stop-color="rgb(58.934021%, 42.579651%, 93.161011%)" offset="0.6875"/><stop stop-opacity="1" stop-color="rgb(58.563232%, 42.234802%, 93.002319%)" offset="0.695313"/><stop stop-opacity="1" stop-color="rgb(58.192444%, 41.889954%, 92.842102%)" offset="0.703125"/><stop stop-opacity="1" stop-color="rgb(57.821655%, 41.545105%, 92.683411%)" offset="0.710938"/><stop stop-opacity="1" stop-color="rgb(57.450867%, 41.200256%, 92.524719%)" offset="0.71875"/><stop stop-opacity="1" stop-color="rgb(57.080078%, 40.855408%, 92.364502%)" offset="0.726562"/><stop stop-opacity="1" stop-color="rgb(56.70929%, 40.510559%, 92.205811%)" offset="0.734375"/><stop stop-opacity="1" stop-color="rgb(56.338501%, 40.16571%, 92.045593%)" offset="0.742187"/><stop stop-opacity="1" stop-color="rgb(55.967712%, 39.820862%, 91.886902%)" offset="0.75"/><stop stop-opacity="1" stop-color="rgb(55.596924%, 39.476013%, 91.726685%)" offset="0.757813"/><stop stop-opacity="1" stop-color="rgb(55.226135%, 39.131165%, 91.567993%)" offset="0.765625"/><stop stop-opacity="1" stop-color="rgb(54.855347%, 38.786316%, 91.407776%)" offset="0.773438"/><stop stop-opacity="1" stop-color="rgb(54.484558%, 38.441467%, 91.249084%)" offset="0.78125"/><stop stop-opacity="1" stop-color="rgb(54.11377%, 38.096619%, 91.088867%)" offset="0.789062"/><stop stop-opacity="1" stop-color="rgb(53.742981%, 37.75177%, 90.930176%)" offset="0.796875"/><stop stop-opacity="1" stop-color="rgb(53.372192%, 37.406921%, 90.771484%)" offset="0.804688"/><stop stop-opacity="1" stop-color="rgb(53.001404%, 37.063599%, 90.611267%)" offset="0.8125"/><stop stop-opacity="1" stop-color="rgb(52.630615%, 36.71875%, 90.452576%)" offset="0.820312"/><stop stop-opacity="1" stop-color="rgb(52.259827%, 36.373901%, 90.292358%)" offset="0.828125"/><stop stop-opacity="1" stop-color="rgb(51.889038%, 36.029053%, 90.133667%)" offset="0.835937"/><stop stop-opacity="1" stop-color="rgb(51.51825%, 35.684204%, 89.97345%)" offset="0.84375"/><stop stop-opacity="1" stop-color="rgb(51.147461%, 35.339355%, 89.814758%)" offset="0.851563"/><stop stop-opacity="1" stop-color="rgb(50.776672%, 34.994507%, 89.654541%)" offset="0.859375"/><stop stop-opacity="1" stop-color="rgb(50.405884%, 34.649658%, 89.49585%)" offset="0.867188"/><stop stop-opacity="1" stop-color="rgb(50.033569%, 34.30481%, 89.335632%)" offset="0.875"/><stop stop-opacity="1" stop-color="rgb(49.662781%, 33.959961%, 89.176941%)" offset="0.882812"/><stop stop-opacity="1" stop-color="rgb(49.291992%, 33.615112%, 89.016724%)" offset="0.890625"/><stop stop-opacity="1" stop-color="rgb(48.921204%, 33.270264%, 88.858032%)" offset="0.898438"/><stop stop-opacity="1" stop-color="rgb(48.550415%, 32.925415%, 88.699341%)" offset="0.90625"/><stop stop-opacity="1" stop-color="rgb(48.179626%, 32.580566%, 88.539124%)" offset="0.914063"/><stop stop-opacity="1" stop-color="rgb(47.808838%, 32.235718%, 88.380432%)" offset="0.921875"/><stop stop-opacity="1" stop-color="rgb(47.438049%, 31.890869%, 88.220215%)" offset="0.929688"/><stop stop-opacity="1" stop-color="rgb(47.067261%, 31.546021%, 88.061523%)" offset="0.9375"/><stop stop-opacity="1" stop-color="rgb(46.696472%, 31.201172%, 87.901306%)" offset="0.945312"/><stop stop-opacity="1" stop-color="rgb(46.325684%, 30.856323%, 87.742615%)" offset="0.953125"/><stop stop-opacity="1" stop-color="rgb(45.954895%, 30.511475%, 87.582397%)" offset="0.960938"/><stop stop-opacity="1" stop-color="rgb(45.584106%, 30.166626%, 87.423706%)" offset="0.96875"/><stop stop-opacity="1" stop-color="rgb(45.213318%, 29.821777%, 87.263489%)" offset="0.976562"/><stop stop-opacity="1" stop-color="rgb(44.842529%, 29.476929%, 87.104797%)" offset="0.984375"/><stop stop-opacity="1" stop-color="rgb(44.471741%, 29.13208%, 86.946106%)" offset="0.992187"/><stop stop-opacity="1" stop-color="rgb(44.100952%, 28.787231%, 86.785889%)" offset="1"/></linearGradient></defs><g clip-path="url(#74a487d3ff)"><g clip-path="url(#c2d380bb91)"><path fill="url(#744021a785)" d="M 10.417969 13.34375 L 10.417969 375 L 364.417969 375 L 364.417969 13.34375 Z M 10.417969 13.34375 " fill-rule="nonzero"/></g></g></svg>