<svg xmlns="http://www.w3.org/2000/svg" xmlns:xlink="http://www.w3.org/1999/xlink" width="500" zoomAndPan="magnify" viewBox="0 0 375 374.999991" height="500" preserveAspectRatio="xMidYMid meet" version="1.0"><defs><clipPath id="db19a13be7"><path d="M 8.898438 60 L 367 60 L 367 325 L 8.898438 325 Z M 8.898438 60 " clip-rule="nonzero"/></clipPath><clipPath id="d9c8797a54"><path d="M 272.207031 159.546875 C 272.207031 157.980469 270.933594 156.714844 269.367188 156.714844 C 267.796875 156.714844 266.527344 157.980469 266.527344 159.546875 C 266.527344 202.949219 231.148438 238.261719 187.664062 238.261719 C 144.179688 238.261719 108.804688 202.953125 108.804688 159.546875 C 108.804688 116.144531 144.179688 80.835938 187.667969 80.835938 C 208.21875 80.835938 227.679688 88.6875 242.46875 102.945312 C 247.085938 107.351562 261.277344 124.054688 250.027344 154.046875 C 239.886719 181.082031 225.375 181.972656 225.304688 181.976562 C 215.507812 181.976562 207.535156 174.019531 207.535156 164.238281 L 207.535156 148.863281 C 207.578125 147.640625 207.578125 146.4375 207.535156 145.242188 L 207.535156 115.816406 C 207.535156 114.25 206.265625 112.980469 204.695312 112.980469 C 203.128906 112.980469 201.855469 114.25 201.855469 115.816406 L 201.855469 126.046875 C 199.347656 122.464844 196.113281 119.855469 192.25 118.476562 C 177.753906 113.300781 160.15625 126.679688 152.191406 148.910156 C 148.476562 159.285156 147.523438 169.988281 149.511719 179.050781 C 151.605469 188.589844 156.695312 195.246094 163.839844 197.796875 C 165.941406 198.546875 168.105469 198.90625 170.296875 198.90625 C 182.527344 198.90625 195.566406 187.699219 202.707031 170.410156 C 205.433594 180.328125 214.523438 187.644531 225.34375 187.644531 C 226.089844 187.632812 243.71875 187.023438 255.34375 156.035156 C 267.8125 122.792969 251.640625 103.859375 246.402344 98.863281 C 230.558594 83.582031 209.699219 75.167969 187.664062 75.167969 C 141.046875 75.167969 103.121094 113.023438 103.121094 159.550781 C 103.121094 206.082031 141.046875 243.933594 187.664062 243.933594 C 234.28125 243.933594 272.207031 206.078125 272.207031 159.546875 Z M 165.75 192.460938 C 160.511719 190.59375 156.714844 185.402344 155.058594 177.839844 C 153.292969 169.804688 154.175781 160.207031 157.535156 150.824219 C 163.4375 134.351562 175.34375 123.042969 185.789062 123.042969 C 187.34375 123.042969 188.871094 123.292969 190.339844 123.816406 C 195.574219 125.683594 199.371094 130.875 201.03125 138.433594 C 201.46875 140.4375 201.742188 142.535156 201.855469 144.699219 L 201.855469 148.90625 C 201.640625 154.253906 200.542969 159.886719 198.546875 165.453125 C 191.886719 184.058594 176.867188 196.425781 165.75 192.460938 Z M 338.554688 70.007812 L 318.828125 61.828125 C 312.820312 59.339844 306.109375 59.585938 299.933594 62.535156 C 293.863281 65.433594 289.03125 70.609375 286.324219 77.105469 L 277.339844 98.683594 C 274.632812 105.179688 274.371094 112.246094 276.597656 118.582031 C 278.859375 125.03125 283.417969 129.957031 289.425781 132.453125 C 296.890625 135.546875 301.367188 143.371094 300.832031 152.378906 C 300.164062 163.539062 297.875 180.441406 290.753906 197.550781 C 283.636719 214.652344 273.246094 228.199219 265.789062 236.550781 C 259.769531 243.285156 251.058594 245.636719 243.59375 242.542969 C 231.296875 237.449219 216.71875 244.292969 211.089844 257.816406 L 202.109375 279.394531 C 196.480469 292.917969 201.902344 308.0625 214.195312 313.164062 L 233.921875 321.34375 C 239 323.449219 244.359375 324.492188 249.75 324.492188 C 257.320312 324.492188 264.949219 322.433594 271.921875 318.382812 C 291.324219 307.101562 319.765625 280.886719 345.078125 220.078125 C 370.394531 159.273438 368.9375 120.664062 363.257812 98.976562 C 359.765625 85.628906 350.757812 75.070312 338.554688 70.007812 Z M 339.835938 217.902344 C 315.125 277.25 287.710938 302.640625 269.0625 313.480469 C 258.664062 319.527344 246.652344 320.484375 236.105469 316.109375 L 216.375 307.925781 C 206.972656 304.027344 202.929688 292.203125 207.355469 281.566406 L 216.335938 259.988281 C 219.796875 251.679688 227.421875 246.519531 235.074219 246.519531 C 237.21875 246.519531 239.363281 246.925781 241.417969 247.777344 C 251.148438 251.808594 262.378906 248.886719 270.03125 240.316406 C 277.78125 231.640625 288.578125 217.558594 296 199.726562 C 303.425781 181.886719 305.808594 164.3125 306.5 152.714844 C 307.1875 141.261719 301.339844 131.25 291.609375 127.214844 C 287.113281 125.347656 283.679688 121.617188 281.960938 116.710938 C 280.199219 111.691406 280.421875 106.0625 282.589844 100.855469 L 291.574219 79.277344 C 293.738281 74.070312 297.578125 69.941406 302.386719 67.644531 C 307.085938 65.40625 312.148438 65.191406 316.652344 67.0625 L 336.378906 75.246094 C 346.929688 79.617188 354.726562 88.789062 357.765625 100.410156 C 363.222656 121.253906 364.539062 158.554688 339.835938 217.902344 Z M 180.886719 253.460938 L 180.886719 283.394531 C 180.886719 284.5 180.242188 285.503906 179.242188 285.96875 C 178.859375 286.144531 178.453125 286.230469 178.046875 286.230469 C 177.390625 286.230469 176.738281 286.003906 176.214844 285.5625 L 135.957031 251.644531 L 29.960938 251.644531 C 18.347656 251.644531 8.898438 242.210938 8.898438 230.621094 L 8.898438 122.675781 C 8.898438 111.082031 18.347656 101.652344 29.960938 101.652344 L 112.246094 101.652344 C 113.8125 101.652344 115.085938 102.921875 115.085938 104.488281 C 115.085938 106.054688 113.8125 107.320312 112.246094 107.320312 L 29.960938 107.320312 C 21.480469 107.320312 14.578125 114.207031 14.578125 122.675781 L 14.578125 230.621094 C 14.578125 239.089844 21.480469 245.976562 29.960938 245.976562 L 136.992188 245.976562 C 137.664062 245.976562 138.316406 246.214844 138.824219 246.644531 L 175.207031 277.292969 L 175.207031 253.460938 C 175.207031 251.890625 176.476562 250.625 178.046875 250.625 C 179.613281 250.625 180.886719 251.890625 180.886719 253.460938 Z M 44.691406 144.109375 C 43.125 144.109375 41.851562 142.84375 41.851562 141.273438 C 41.851562 139.707031 43.125 138.441406 44.691406 138.441406 L 88.351562 138.441406 C 89.917969 138.441406 91.191406 139.707031 91.191406 141.273438 C 91.191406 142.84375 89.917969 144.109375 88.351562 144.109375 Z M 28.964844 180.875 L 94.890625 180.875 C 96.457031 180.875 97.730469 182.140625 97.730469 183.707031 C 97.730469 185.277344 96.457031 186.542969 94.890625 186.542969 L 28.964844 186.542969 C 27.398438 186.542969 26.125 185.277344 26.125 183.707031 C 26.125 182.140625 27.398438 180.875 28.964844 180.875 Z M 28.964844 180.875 " clip-rule="nonzero"/></clipPath><linearGradient x1="62.999001" gradientTransform="matrix(2.839749, 0, 0, 2.834374, 8.898694, 60.126859)" y1="-0.276997" x2="62.999001" gradientUnits="userSpaceOnUse" y2="93.271005" id="37e810e252"><stop stop-opacity="1" stop-color="rgb(93.699646%, 79.598999%, 34.498596%)" offset="0"/><stop stop-opacity="1" stop-color="rgb(93.666077%, 79.48761%, 34.603882%)" offset="0.0078125"/><stop stop-opacity="1" stop-color="rgb(93.579102%, 79.199219%, 34.881592%)" offset="0.015625"/><stop stop-opacity="1" stop-color="rgb(93.470764%, 78.842163%, 35.221863%)" offset="0.0234375"/><stop stop-opacity="1" stop-color="rgb(93.363953%, 78.486633%, 35.562134%)" offset="0.03125"/><stop stop-opacity="1" stop-color="rgb(93.257141%, 78.129578%, 35.903931%)" offset="0.0390625"/><stop stop-opacity="1" stop-color="rgb(93.148804%, 77.772522%, 36.244202%)" offset="0.046875"/><stop stop-opacity="1" stop-color="rgb(93.041992%, 77.416992%, 36.584473%)" offset="0.0546875"/><stop stop-opacity="1" stop-color="rgb(92.935181%, 77.059937%, 36.92627%)" offset="0.0625"/><stop stop-opacity="1" stop-color="rgb(92.826843%, 76.702881%, 37.266541%)" offset="0.0703125"/><stop stop-opacity="1" stop-color="rgb(92.720032%, 76.347351%, 37.608337%)" offset="0.078125"/><stop stop-opacity="1" stop-color="rgb(92.61322%, 75.990295%, 37.948608%)" offset="0.0859375"/><stop stop-opacity="1" stop-color="rgb(92.504883%, 75.634766%, 38.288879%)" offset="0.09375"/><stop stop-opacity="1" stop-color="rgb(92.398071%, 75.27771%, 38.630676%)" offset="0.101562"/><stop stop-opacity="1" stop-color="rgb(92.289734%, 74.920654%, 38.970947%)" offset="0.109375"/><stop stop-opacity="1" stop-color="rgb(92.182922%, 74.565125%, 39.311218%)" offset="0.117187"/><stop stop-opacity="1" stop-color="rgb(92.076111%, 74.208069%, 39.653015%)" offset="0.125"/><stop stop-opacity="1" stop-color="rgb(91.967773%, 73.851013%, 39.993286%)" offset="0.132812"/><stop stop-opacity="1" stop-color="rgb(91.860962%, 73.495483%, 40.335083%)" offset="0.140625"/><stop stop-opacity="1" stop-color="rgb(91.75415%, 73.138428%, 40.675354%)" offset="0.148438"/><stop stop-opacity="1" stop-color="rgb(91.645813%, 72.781372%, 41.015625%)" offset="0.15625"/><stop stop-opacity="1" stop-color="rgb(91.539001%, 72.425842%, 41.357422%)" offset="0.164062"/><stop stop-opacity="1" stop-color="rgb(91.43219%, 72.068787%, 41.697693%)" offset="0.171875"/><stop stop-opacity="1" stop-color="rgb(91.323853%, 71.711731%, 42.03949%)" offset="0.179687"/><stop stop-opacity="1" stop-color="rgb(91.217041%, 71.356201%, 42.379761%)" offset="0.1875"/><stop stop-opacity="1" stop-color="rgb(91.110229%, 70.999146%, 42.720032%)" offset="0.195312"/><stop stop-opacity="1" stop-color="rgb(91.001892%, 70.64209%, 43.061829%)" offset="0.203125"/><stop stop-opacity="1" stop-color="rgb(90.895081%, 70.28656%, 43.4021%)" offset="0.210938"/><stop stop-opacity="1" stop-color="rgb(90.788269%, 69.929504%, 43.742371%)" offset="0.21875"/><stop stop-opacity="1" stop-color="rgb(90.679932%, 69.572449%, 44.084167%)" offset="0.226562"/><stop stop-opacity="1" stop-color="rgb(90.57312%, 69.216919%, 44.424438%)" offset="0.234375"/><stop stop-opacity="1" stop-color="rgb(90.464783%, 68.859863%, 44.766235%)" offset="0.242188"/><stop stop-opacity="1" stop-color="rgb(90.357971%, 68.504333%, 45.106506%)" offset="0.25"/><stop stop-opacity="1" stop-color="rgb(90.25116%, 68.147278%, 45.446777%)" offset="0.257812"/><stop stop-opacity="1" stop-color="rgb(90.142822%, 67.790222%, 45.788574%)" offset="0.265625"/><stop stop-opacity="1" stop-color="rgb(90.036011%, 67.434692%, 46.128845%)" offset="0.273437"/><stop stop-opacity="1" stop-color="rgb(89.929199%, 67.077637%, 46.469116%)" offset="0.28125"/><stop stop-opacity="1" stop-color="rgb(89.820862%, 66.720581%, 46.810913%)" offset="0.289062"/><stop stop-opacity="1" stop-color="rgb(89.71405%, 66.365051%, 47.151184%)" offset="0.296875"/><stop stop-opacity="1" stop-color="rgb(89.607239%, 66.007996%, 47.492981%)" offset="0.304688"/><stop stop-opacity="1" stop-color="rgb(89.498901%, 65.65094%, 47.833252%)" offset="0.3125"/><stop stop-opacity="1" stop-color="rgb(89.39209%, 65.29541%, 48.173523%)" offset="0.320312"/><stop stop-opacity="1" stop-color="rgb(89.285278%, 64.938354%, 48.51532%)" offset="0.328125"/><stop stop-opacity="1" stop-color="rgb(89.176941%, 64.581299%, 48.855591%)" offset="0.335937"/><stop stop-opacity="1" stop-color="rgb(89.070129%, 64.225769%, 49.197388%)" offset="0.34375"/><stop stop-opacity="1" stop-color="rgb(88.963318%, 63.868713%, 49.537659%)" offset="0.351562"/><stop stop-opacity="1" stop-color="rgb(88.85498%, 63.511658%, 49.87793%)" offset="0.359375"/><stop stop-opacity="1" stop-color="rgb(88.748169%, 63.156128%, 50.219727%)" offset="0.367187"/><stop stop-opacity="1" stop-color="rgb(88.639832%, 62.799072%, 50.559998%)" offset="0.375"/><stop stop-opacity="1" stop-color="rgb(88.53302%, 62.442017%, 50.900269%)" offset="0.382812"/><stop stop-opacity="1" stop-color="rgb(88.426208%, 62.086487%, 51.242065%)" offset="0.390625"/><stop stop-opacity="1" stop-color="rgb(88.317871%, 61.729431%, 51.582336%)" offset="0.398438"/><stop stop-opacity="1" stop-color="rgb(88.21106%, 61.372375%, 51.924133%)" offset="0.40625"/><stop stop-opacity="1" stop-color="rgb(88.104248%, 61.016846%, 52.264404%)" offset="0.414062"/><stop stop-opacity="1" stop-color="rgb(87.995911%, 60.65979%, 52.604675%)" offset="0.421875"/><stop stop-opacity="1" stop-color="rgb(87.889099%, 60.30426%, 52.946472%)" offset="0.429687"/><stop stop-opacity="1" stop-color="rgb(87.782288%, 59.947205%, 53.286743%)" offset="0.4375"/><stop stop-opacity="1" stop-color="rgb(87.67395%, 59.590149%, 53.627014%)" offset="0.445312"/><stop stop-opacity="1" stop-color="rgb(87.567139%, 59.234619%, 53.968811%)" offset="0.453125"/><stop stop-opacity="1" stop-color="rgb(87.460327%, 58.877563%, 54.309082%)" offset="0.460937"/><stop stop-opacity="1" stop-color="rgb(87.35199%, 58.520508%, 54.650879%)" offset="0.46875"/><stop stop-opacity="1" stop-color="rgb(87.245178%, 58.164978%, 54.99115%)" offset="0.476562"/><stop stop-opacity="1" stop-color="rgb(87.138367%, 57.807922%, 55.331421%)" offset="0.484375"/><stop stop-opacity="1" stop-color="rgb(87.030029%, 57.450867%, 55.673218%)" offset="0.492187"/><stop stop-opacity="1" stop-color="rgb(86.923218%, 57.095337%, 56.013489%)" offset="0.5"/><stop stop-opacity="1" stop-color="rgb(86.81488%, 56.738281%, 56.355286%)" offset="0.507813"/><stop stop-opacity="1" stop-color="rgb(86.708069%, 56.381226%, 56.695557%)" offset="0.515625"/><stop stop-opacity="1" stop-color="rgb(86.601257%, 56.025696%, 57.035828%)" offset="0.523438"/><stop stop-opacity="1" stop-color="rgb(86.49292%, 55.66864%, 57.377625%)" offset="0.53125"/><stop stop-opacity="1" stop-color="rgb(86.386108%, 55.311584%, 57.717896%)" offset="0.539062"/><stop stop-opacity="1" stop-color="rgb(86.279297%, 54.956055%, 58.058167%)" offset="0.546875"/><stop stop-opacity="1" stop-color="rgb(86.170959%, 54.598999%, 58.399963%)" offset="0.554688"/><stop stop-opacity="1" stop-color="rgb(86.064148%, 54.241943%, 58.740234%)" offset="0.5625"/><stop stop-opacity="1" stop-color="rgb(85.957336%, 53.886414%, 59.082031%)" offset="0.570312"/><stop stop-opacity="1" stop-color="rgb(85.848999%, 53.529358%, 59.422302%)" offset="0.578125"/><stop stop-opacity="1" stop-color="rgb(85.742188%, 53.172302%, 59.762573%)" offset="0.585938"/><stop stop-opacity="1" stop-color="rgb(85.635376%, 52.816772%, 60.10437%)" offset="0.59375"/><stop stop-opacity="1" stop-color="rgb(85.527039%, 52.459717%, 60.444641%)" offset="0.601562"/><stop stop-opacity="1" stop-color="rgb(85.420227%, 52.104187%, 60.786438%)" offset="0.609375"/><stop stop-opacity="1" stop-color="rgb(85.313416%, 51.747131%, 61.126709%)" offset="0.617188"/><stop stop-opacity="1" stop-color="rgb(85.205078%, 51.390076%, 61.46698%)" offset="0.625"/><stop stop-opacity="1" stop-color="rgb(85.098267%, 51.034546%, 61.808777%)" offset="0.632812"/><stop stop-opacity="1" stop-color="rgb(84.991455%, 50.67749%, 62.149048%)" offset="0.640625"/><stop stop-opacity="1" stop-color="rgb(84.883118%, 50.320435%, 62.489319%)" offset="0.648438"/><stop stop-opacity="1" stop-color="rgb(84.776306%, 49.964905%, 62.831116%)" offset="0.65625"/><stop stop-opacity="1" stop-color="rgb(84.667969%, 49.607849%, 63.171387%)" offset="0.664062"/><stop stop-opacity="1" stop-color="rgb(84.561157%, 49.250793%, 63.513184%)" offset="0.671875"/><stop stop-opacity="1" stop-color="rgb(84.454346%, 48.895264%, 63.853455%)" offset="0.679688"/><stop stop-opacity="1" stop-color="rgb(84.346008%, 48.538208%, 64.193726%)" offset="0.6875"/><stop stop-opacity="1" stop-color="rgb(84.239197%, 48.181152%, 64.535522%)" offset="0.695312"/><stop stop-opacity="1" stop-color="rgb(84.132385%, 47.825623%, 64.875793%)" offset="0.703125"/><stop stop-opacity="1" stop-color="rgb(84.024048%, 47.468567%, 65.216064%)" offset="0.710938"/><stop stop-opacity="1" stop-color="rgb(83.917236%, 47.111511%, 65.557861%)" offset="0.71875"/><stop stop-opacity="1" stop-color="rgb(83.810425%, 46.755981%, 65.898132%)" offset="0.726562"/><stop stop-opacity="1" stop-color="rgb(83.702087%, 46.398926%, 66.239929%)" offset="0.734375"/><stop stop-opacity="1" stop-color="rgb(83.595276%, 46.04187%, 66.5802%)" offset="0.742188"/><stop stop-opacity="1" stop-color="rgb(83.488464%, 45.68634%, 66.920471%)" offset="0.75"/><stop stop-opacity="1" stop-color="rgb(83.380127%, 45.329285%, 67.262268%)" offset="0.757812"/><stop stop-opacity="1" stop-color="rgb(83.273315%, 44.972229%, 67.602539%)" offset="0.765625"/><stop stop-opacity="1" stop-color="rgb(83.166504%, 44.616699%, 67.944336%)" offset="0.773438"/><stop stop-opacity="1" stop-color="rgb(83.058167%, 44.259644%, 68.284607%)" offset="0.78125"/><stop stop-opacity="1" stop-color="rgb(82.951355%, 43.904114%, 68.624878%)" offset="0.789062"/><stop stop-opacity="1" stop-color="rgb(82.843018%, 43.547058%, 68.966675%)" offset="0.796875"/><stop stop-opacity="1" stop-color="rgb(82.736206%, 43.190002%, 69.306946%)" offset="0.804688"/><stop stop-opacity="1" stop-color="rgb(82.629395%, 42.834473%, 69.647217%)" offset="0.8125"/><stop stop-opacity="1" stop-color="rgb(82.521057%, 42.477417%, 69.989014%)" offset="0.820312"/><stop stop-opacity="1" stop-color="rgb(82.414246%, 42.120361%, 70.329285%)" offset="0.828125"/><stop stop-opacity="1" stop-color="rgb(82.307434%, 41.764832%, 70.671082%)" offset="0.835938"/><stop stop-opacity="1" stop-color="rgb(82.199097%, 41.407776%, 71.011353%)" offset="0.84375"/><stop stop-opacity="1" stop-color="rgb(82.092285%, 41.05072%, 71.351624%)" offset="0.851563"/><stop stop-opacity="1" stop-color="rgb(81.985474%, 40.69519%, 71.69342%)" offset="0.859375"/><stop stop-opacity="1" stop-color="rgb(81.877136%, 40.338135%, 72.033691%)" offset="0.867188"/><stop stop-opacity="1" stop-color="rgb(81.770325%, 39.981079%, 72.373962%)" offset="0.875"/><stop stop-opacity="1" stop-color="rgb(81.663513%, 39.625549%, 72.715759%)" offset="0.882813"/><stop stop-opacity="1" stop-color="rgb(81.555176%, 39.268494%, 73.05603%)" offset="0.890625"/><stop stop-opacity="1" stop-color="rgb(81.448364%, 38.911438%, 73.397827%)" offset="0.898438"/><stop stop-opacity="1" stop-color="rgb(81.341553%, 38.555908%, 73.738098%)" offset="0.90625"/><stop stop-opacity="1" stop-color="rgb(81.233215%, 38.198853%, 74.078369%)" offset="0.914062"/><stop stop-opacity="1" stop-color="rgb(81.126404%, 37.841797%, 74.420166%)" offset="0.921875"/><stop stop-opacity="1" stop-color="rgb(81.018066%, 37.486267%, 74.760437%)" offset="0.929688"/><stop stop-opacity="1" stop-color="rgb(80.911255%, 37.129211%, 75.102234%)" offset="0.9375"/><stop stop-opacity="1" stop-color="rgb(80.804443%, 36.772156%, 75.442505%)" offset="0.945312"/><stop stop-opacity="1" stop-color="rgb(80.696106%, 36.416626%, 75.782776%)" offset="0.953125"/><stop stop-opacity="1" stop-color="rgb(80.589294%, 36.05957%, 76.124573%)" offset="0.960938"/><stop stop-opacity="1" stop-color="rgb(80.482483%, 35.704041%, 76.464844%)" offset="0.96875"/><stop stop-opacity="1" stop-color="rgb(80.374146%, 35.346985%, 76.805115%)" offset="0.976562"/><stop stop-opacity="1" stop-color="rgb(80.267334%, 34.989929%, 77.146912%)" offset="0.984375"/><stop stop-opacity="1" stop-color="rgb(80.160522%, 34.634399%, 77.487183%)" offset="0.992188"/><stop stop-opacity="1" stop-color="rgb(80.052185%, 34.277344%, 77.828979%)" offset="1"/></linearGradient></defs><g clip-path="url(#db19a13be7)"><g clip-path="url(#d9c8797a54)"><path fill="url(#37e810e252)" d="M 8.898438 59.339844 L 8.898438 324.492188 L 370.394531 324.492188 L 370.394531 59.339844 Z M 8.898438 59.339844 " fill-rule="nonzero"/></g></g></svg>